<?xml version="1.0" encoding="utf-8"?>
<!-- Generator: Adobe Illustrator 27.5.0, SVG Export Plug-In . SVG Version: 6.00 Build 0)  -->
<svg version="1.1" id="Layer_1" xmlns="http://www.w3.org/2000/svg" xmlns:xlink="http://www.w3.org/1999/xlink" x="0px" y="0px"
	 viewBox="0 0 376.3 309.6" xml:space="preserve">
<style type="text/css">
	.st0{fill:#FFFFFF;}
	.st1{fill:#EF59A2;}
	.st2{fill:#7E4DA2;}
</style>
<path class="st0" d="M337.6,2.9c-2.5,8.5-5.1,16.9-7.4,25.2c-0.7,2.6-1,5.4-1.2,8.1c-0.2,3.6-0.1,7.2-0.1,10.9
	c0,1.3-0.4,1.8-1.8,1.7c-2.2-0.2-4.4-0.1-6.6,0c-1.3,0.1-1.6-0.3-1.6-1.5c0-2.3-0.2-4.6,0-6.8c0.4-5.5-0.5-10.8-2.2-16.1
	c-2.2-6.8-4.1-13.7-6.1-20.6c-0.1-0.2,0-0.5,0-0.9c2.9,0,5.8-0.1,8.7,0.1c0.4,0,1.1,0.7,1.2,1.2c0.8,4.2,1.5,8.4,2.2,12.7
	c0.2,1.3,0.6,2.6,0.9,3.8c0.2,0,0.4,0,0.6,0c0.7-3.4,1.4-6.7,2.1-10.1c0.5-2.2,0.9-4.4,1.4-6.6c0.1-0.5,0.8-1,1.3-1.1
	C331.7,2.9,334.5,2.9,337.6,2.9z"/>
<path class="st0" d="M306.4,48.6c-3.7,0-7.1,0-10.5,0c-2.7,0-5.4,0.1-8.1,0.2c-0.9,0-1.4-0.3-1.4-1.2c0-0.8-0.1-1.6-0.1-2.4
	c0.1-13.8,0.1-27.6,0.2-41.4c0-0.2,0.1-0.5,0.1-0.8H306c-0.1,2.3-0.2,4.6-0.4,6.8c0,0.4-1,1-1.5,1.1c-1.6,0.1-3.2-0.1-4.8-0.1
	c-1.2,0-2,0.5-2,1.8c0,2.5,0,5,0.2,7.5c0,0.4,0.8,1,1.3,1.1c1.6,0.2,3.3,0.1,5,0.1c1,0,1.4,0.4,1.4,1.4c0,1.5,0,2.9,0,4.4
	c0,1.1-0.4,1.5-1.6,1.5c-1.5-0.1-3-0.2-4.4,0c-0.6,0.1-1.6,0.9-1.7,1.4c-0.2,3.2-0.1,6.4,0,9.5c0,0.4,1,1,1.5,1.1
	c1.9,0.2,3.8,0.1,5.7,0.1c1.1,0,1.7,0.3,1.6,1.6C306.3,44.4,306.4,46.3,306.4,48.6z"/>
<path class="st0" d="M261.7,48.6c0-0.9,0-1.4,0-1.9c0-14.5,0-29,0-43.6h11.2v4.3c0,10.2,0,20.4,0,30.6c0,2.9,0.1,3,3,2.9h0.4
	c4-0.1,4-0.1,4,3.9c0,4,0,3.9-3.8,3.9C271.6,48.6,266.8,48.6,261.7,48.6L261.7,48.6z"/>
<path class="st0" d="M255.9,48.6c-5,0-9.8,0-14.6,0c-3.8,0-3.9,0-3.9-3.8c0-13.1,0-26.3,0-39.4c0-0.7,0-1.5,0-2.4h10.8v5
	c0,9.7-0.1,19.4-0.1,29.1c0,0.1,0,0.3,0,0.4c0.2,3.2,0.2,3.2,3.4,3.3c4.4,0.1,4.4,0.1,4.4,4.4L255.9,48.6z"/>
<path class="st0" d="M208.6,2.9c5.4,0,10.4,0,15.4,0c1.1,0,1.3,0.6,1.4,1.5c0.6,3.8,1.1,7.6,1.7,11.4c1.4,9.6,2.8,19.1,4.3,28.7
	c0.6,4.1,0.6,4.1-3.5,4.1c-2.3,0-4.5,0-7,0c-0.3-2.2-0.6-4.3-0.8-6.4c-0.2-1.4-0.8-2-2.3-2.1c-1.5,0-3,0-3.3,1.8
	c-0.4,1.7-0.5,3.4-0.7,5.1c-0.1,1.4-0.5,1.9-2.2,1.8c-3-0.3-6-0.1-9.3-0.1C204.5,33.3,206.5,18.2,208.6,2.9L208.6,2.9z M217.7,13.4
	c-0.2,0-0.4-0.1-0.6-0.1c-0.2,0.6-0.6,1.2-0.6,1.8c-0.6,5.5-1.3,11-1.9,16.5c-0.3,2.5,1.8,1.6,3.1,1.8c1.4,0.2,2-0.5,1.9-1.9
	c-0.3-3.2-0.4-6.3-0.7-9.5C218.6,19.2,218.1,16.3,217.7,13.4z"/>
<path class="st0" d="M170.3,3h11.6c1.1,10.5,2.2,21,3.3,31.5c0.2,0,0.3,0,0.5,0.1c0.3-1.9,0.7-3.8,0.9-5.7
	c0.8-8.1,1.6-16.2,2.3-24.3c0.1-1.3,0.5-1.7,1.8-1.6c3.4,0.1,6.7,0,10.2,0c-0.2,1.5-0.4,2.7-0.5,4c-1.7,13.2-3.5,26.4-5.1,39.5
	c-0.2,1.6-0.7,2.3-2.5,2.2c-4.5-0.2-9-0.2-13.4,0c-2.1,0.1-2.7-0.9-2.9-2.6c-0.6-4.5-1.1-9-1.7-13.5c-1.3-8.5-2.7-17.1-4-25.6
	C170.4,5.7,170.4,4.4,170.3,3z"/>
<path class="st0" d="M141.6,48.7c0-4.4,0-8.7,0-12.9c0-1.6-0.2-3.3-0.2-5c0-1.9-1.3-2.2-2.7-2.2c-1.5,0-2.2,0.9-2.1,2.4
	c0,5.5,0,10.9,0,16.4c0,0.3,0,0.6-0.1,1.2c-2.3,0-4.6,0-6.9,0c-4,0-4,0-4-4c0-13.1,0-26.3,0-39.4c0-0.7,0.1-1.4,0.1-2.2h10.9v3.9
	c0,3.5,0.1,7,0,10.5c0,1.6,0.5,2.4,2.2,2.4c2.2,0,2.9-0.5,2.9-2.3c0.1-3.8,0-7.6,0-11.4c0-1,0-1.9,0-3h10.8v2.3
	c0,13.6,0,27.1,0,40.7c0,2.8,0,2.7-2.8,2.6c-1.9-0.1-3.8,0-5.7,0C143.1,48.7,142.5,48.7,141.6,48.7z"/>
<path class="st0" d="M101.2,48.7c0-0.9,0-1.6,0-2.3c0-10.7,0-21.3,0-32c0-3.6-0.1-3.6-3.6-3.6c-1.2,0-2.3,0-3.6,0c0-2.6,0-5.1,0-7.8
	h25.5c0,2.3,0,4.4,0,6.6c0,1-0.5,1.4-1.5,1.3c-1.4-0.1-2.8-0.2-4.2-0.1c-0.5,0.1-1.3,0.8-1.4,1.4c-0.2,1.3-0.1,2.7-0.1,4
	c0,10.1,0,20.2,0,30.3c0,2.3-0.1,2.1-2.3,2C107.1,48.6,104.2,48.7,101.2,48.7z"/>
<path class="st0" d="M73.2,48.7c-3.4,0-6.6,0-9.9,0c-0.3,0-0.8-0.6-0.9-1c-0.2-1.3-0.2-2.6-0.2-3.9c0-12.4,0-24.8,0-37.2
	c0-1.2,0.1-2.3,0.2-3.6c4.2,0,8.3,0,12.4,0c1.4,0,2.8,0.2,4.2,0.3c5.8,0.3,8.5,2.9,9.3,8.7c0,0.4,0.1,0.7,0.1,1.1
	c0.4,4.9,0.3,9.6-5.8,11.6c1.4,1.1,2.6,2,3.7,2.9c1.3,1.1,2.1,2.5,2.1,4.3c0,5.1,0.1,10.2,0.1,15.3c0,1.1-0.3,1.5-1.5,1.5
	c-2.4-0.1-4.8,0-7.2,0c-1.1,0-1.5-0.4-1.5-1.5c0-4.7,0-9.4-0.1-14.2c0-1.3-0.1-2.7-0.7-3.7c-0.6-0.9-1.9-1.9-2.9-2
	c-1.4-0.1-1.5,1.5-1.5,2.7v16.4C73.2,47.1,73.2,47.8,73.2,48.7z M73.2,15.5c0,1.3,0,2.7,0,4c0.1,1.9,1.3,2.6,3,1.7
	c2.9-1.6,2.1-4.4,2.1-6.9c0.1-1.9-0.4-3.7-2.4-4.5c-1.5-0.6-2.6,0-2.7,1.6C73.1,12.8,73.2,14.1,73.2,15.5z"/>
<path class="st0" d="M54.5,25.7c0,4.3,0.2,8.6,0,12.9c-0.3,5.4-3.6,9.5-8.9,10.4c-3,0.5-6.3,0.5-9.3-0.1c-5.5-1.1-8.6-5.2-8.7-10.8
	c-0.1-8.3-0.1-16.6,0-24.8c0.1-5.6,3.5-9.6,9-10.8c3.7-0.8,7.3-0.8,10.8,0.6c4.5,1.9,6.9,5.2,7,10C54.5,17.4,54.4,21.6,54.5,25.7
	C54.5,25.7,54.5,25.7,54.5,25.7z M43.6,25.8c0-3.4,0.1-6.7,0-10.1c0-1.8-0.2-3.6-0.6-5.3c-0.2-0.8-1.2-1.9-1.9-1.9
	c-1.3-0.1-2.3,0.9-2.5,2.3c-0.1,1.1-0.2,2.2-0.2,3.3c0,7.9,0,15.7,0,23.6c0,1,0,2.1,0.1,3.1c0.1,1.6,1.3,2.3,2.5,2.5
	c0.5,0.1,1.6-1.1,1.8-1.9c0.5-1.5,0.7-3.1,0.7-4.7C43.7,33,43.6,29.4,43.6,25.8z"/>
<path class="st0" d="M2.6,3h19.3c0,2.3,0.1,4.6-0.1,6.8c0,0.4-0.8,1-1.3,1c-1.9,0.1-3.8,0-5.7,0c-1.1,0-1.6,0.5-1.6,1.5
	c0,2.6,0,5.1,0.1,7.7c0,0.4,0.8,1.1,1.3,1.2c1.5,0.2,2.9,0.1,4.4,0c1.3-0.1,1.8,0.4,1.7,1.7c0,1.4,0,2.8,0,4.2
	c0,1.1-0.4,1.6-1.5,1.5c-1.3-0.1-2.6,0-3.9-0.1c-1.6-0.2-2.2,0.5-2.2,2.1c0,5.3-0.1,10.5,0,15.8c0,1.7-0.2,2.4-2.2,2.2
	c-2.7-0.3-5.5-0.1-8.4-0.1C2.6,33.4,2.6,18.3,2.6,3z"/>
<path class="st1" d="M229.7,65.3v2.5c0,8.8,0,17.5,0,26.2c0,0.4,0.1,0.8,0.1,1.2c0.2,1.4,0.5,1.5,1.9,1.4c3.6-0.1,7.2-0.1,10.7-0.1
	c1.1,0,2.2,0,3.4,0c0.9,0,1.3,0.3,1.3,1.2c0,6.6,0,13.2,0,19.7c0,1.1-0.5,1.3-1.5,1.3c-4.8,0-9.5,0-14.2,0c-1.1,0-1.6,0.2-1.6,1.4
	c0,6.8-0.1,13.6-0.1,20.5c0,4.2,0.1,8.4,0.1,12.6c0.1,3.3,2.5,5.9,5.8,6.2c3.1,0.3,6.1-0.4,9-1.5c0.9-0.3,1.4-0.3,1.5,0.8
	c0.6,5.5,1.4,11.1,1.9,16.6c0.3,3.4,0.3,2.8-2.6,3.4c-7.9,1.7-15.9,1.8-24,1.5c-4.9-0.1-9.6-0.9-13.8-3.8c-4.9-3.5-7.3-8.4-8.1-14.3
	c-2-13.2-0.5-26.5-1-39.8c-0.1-3.7,0-3.7-3.6-3.7c-2.2,0-4.5-0.1-6.8,0c-1.2,0.1-1.5-0.4-1.5-1.5c0-3.2,0.1-6.5,0-9.8
	c0-3-0.1-6.1-0.2-9.1c0-1.6,0.3-1.9,1.9-1.9c2.8,0,5.7-0.1,8.5,0c1.1,0,1.5-0.5,1.5-1.4c0-1.2,0-2.4,0-3.6c0-3.1,0-6.2,0-9.2
	c0-0.8,0.2-1.3,1-1.7c5.5-2.7,10.9-5.5,16.4-8.3c4.4-2.2,8.8-4.6,13.2-6.9C229.1,65.3,229.2,65.3,229.7,65.3L229.7,65.3z"/>
<path class="st1" d="M142.6,109.9c0.3-0.4,0.5-0.9,0.8-1.3c2-3.9,4.2-7.6,7.8-10.2c2.8-2.1,6-3.1,9.5-3.4c5.3-0.4,10.1,1.1,14.9,3.2
	c1.5,0.7,1.5,1,0.9,2.4c-2.3,5.2-4.5,10.4-6.8,15.6c-0.4,0.9-0.8,1.9-1.1,2.9c-0.5,1.3-0.9,1.5-2.2,0.9c-3-1.3-6-1.9-9.2-1.5
	c-4.6,0.6-7.4,3.6-9.5,7.5c-1.7,3.3-2.5,7-3,10.6c-0.4,3.6-0.7,7.3-0.8,10.9c-0.1,9.8,0,19.7,0,29.5c0,1.8,0,1.8-1.8,1.8
	c-9.3,0-18.7,0-28,0c-1,0-1.4-0.3-1.4-1.2c0-0.9-0.1-1.7-0.1-2.6c0-25.5,0-51.1,0-76.6c0-1.8,0-1.8,1.8-1.8c8.5,0,17,0,25.5,0
	c1.7,0,1.8,0.1,1.8,1.8c0,3-0.1,6.1,0,9.1c0,0.8,0.3,1.6,0.4,2.5C142.2,109.9,142.4,109.9,142.6,109.9L142.6,109.9z"/>
<path class="st1" d="M95.3,178.7c-0.6,0-0.9,0.1-1.2,0.1c-8.6,0-17.2,0-25.9,0c-1.1,0-1.8-0.3-2.2-1.3c-0.9-2.5-1.7-5-2.6-7.5
	c-0.2-0.4-0.4-0.9-0.6-1.3c-0.4,0.2-0.9,0.4-1.2,0.7c-6.4,6.1-14.1,9.7-22.9,10.6c-5.8,0.6-11.8,0.7-17.6-0.3
	c-6.1-1-11.6-3.8-15.6-8.7c-3.7-4.5-5.3-9.6-4.8-15.4c0.2-2.3,0.4-4.6,1.3-6.8c1.7-4.7,4.9-8,9.1-10.4c5.4-3.1,11.4-4.4,17.5-5.5
	c2.5-0.4,5-0.7,7.5-1.2c1.4-0.3,2.7-0.9,4.1-1.2c6.7-1.7,13.6-3,19.9-5.9c0.5-0.2,1.1-0.8,1.2-1.3c0.6-4.4-1.4-9.4-6.3-10.6
	c-2-0.5-4.1-0.6-6.2-0.5c-3.2,0.1-6.5,0.3-9.5,1.8c-2.9,1.5-4.7,3.8-5.9,6.7c-0.4,1-0.9,1.5-1.9,1.3c-4.4-0.5-8.8-0.9-13.3-1.5
	c-4-0.5-7.9-1-11.9-1.4c-0.7-0.1-1.4-0.1-2.1-0.1c-0.7,0-1-0.3-0.8-1.1c1.4-5.2,3.3-10.1,7.6-13.9c3.1-2.7,6.4-4.9,10.2-6.2
	c3.1-1,6.4-1.5,9.6-2.2c8.6-1.7,17.3-0.9,25.9-0.9c2.9,0,5.8,0.7,8.7,0.9c4.1,0.4,8.1,1.5,11.8,3.3c5,2.4,8.8,6,11.1,11.2
	c2.4,5.2,3.3,10.7,3.3,16.4c0,11.8,0,23.6,0,35.4c0,4.4,0.3,8.7,1.9,12.8C94.3,176.1,94.8,177.3,95.3,178.7L95.3,178.7z M43.4,165
	c0.9-0.1,1.6-0.1,2.2-0.3c2-0.7,4-1.5,5.9-2.3c4.8-2.1,8.1-5.5,9.3-10.7c0.9-3.6,0.9-7.2,0.7-10.9c-0.1-1.5-0.6-1.8-2-1.4
	c-5.4,1.6-10.7,3.2-16.1,4.9c-3,0.9-6,1.8-8.4,4c-4.7,4.3-4.3,10.8,1,14.4C38.3,164.2,41,164.4,43.4,165L43.4,165z"/>
<path class="st2" d="M357.8,193.8v7c0,7.5,0,15,0,22.5c0,2,0,2,2,2h13.6c1.7,0,1.7,0,1.7,1.6c0.1,6.4,0.1,12.9,0.2,19.4
	c0,1.2-0.4,1.4-1.5,1.4c-4.8,0-9.7,0-14.5,0c-1.1,0-1.5,0.4-1.5,1.4c0,0.5,0,1.1,0,1.6c0,10.1,0,20.2,0,30.3c0,4.7,3.3,7.8,8,7.3
	c2.4-0.3,4.8-0.9,7.2-1.5c1.1-0.3,1.4-0.1,1.5,1c0.3,3.8,0.7,7.5,1.1,11.3c0.2,2.3,0.5,4.6,0.8,6.9c0.1,0.8-0.2,1.2-1,1.3
	c-2.5,0.5-5,1-7.5,1.4c-6.4,1.1-12.8,1-19.2,0.6c-3-0.2-6-0.7-8.8-1.7c-6.6-2.2-10.4-7.2-11.9-13.8c-0.7-3-1-6.1-1.3-9.1
	c-1-11.1-0.4-22.1-0.4-33.2c0-3.8,0-3.8-3.7-3.8c-2.1,0-4.2-0.1-6.4,0c-1.1,0-1.5-0.4-1.5-1.4c0.1-5.5,0.1-10.9,0.1-16.4
	c0-1,0-2-0.1-3c-0.1-1.4,0-1.6,1.5-1.6c2.7,0,5.4,0,8.1,0c1.7,0,1.8,0,1.8-1.7c0-3.9,0-7.8,0-11.8c0-2.1,0.1-1.9,1.9-2.8
	c3-1.4,5.8-3,8.8-4.5c6-3.1,12.1-6.1,18.1-9.2C355.8,194.9,356.5,194.5,357.8,193.8L357.8,193.8z"/>
<path class="st2" d="M306,307.6c-0.5,0-0.9,0-1.2,0c-8.7,0-17.4,0-26.1,0c-1.1,0-1.8-0.3-2.2-1.3c-0.7-1.8-1.4-3.7-2.1-5.6
	c-0.2-0.4-0.2-0.9-0.3-1.3c-0.5-2-0.9-2.2-2.3-0.7c-6.1,6.1-13.7,9.2-22,10.2c-7.1,0.9-14.3,1-21.3-1.1c-7.1-2.1-12.8-6.2-15.6-13.3
	c-3.5-8.7-2.2-16.9,4.2-24c2.4-2.7,5.7-4.1,9-5.4c5.6-2.3,11.6-3.1,17.5-4.4c8.5-1.9,17.2-3.3,25.3-6.5c0.2-0.1,0.5-0.2,0.7-0.3
	c2.5-1.1,2.7-1.4,2.3-4.2c-0.1-0.9-0.4-1.8-0.6-2.7c-0.9-3.3-3.3-4.9-6.5-5.4c-3.9-0.6-7.8-0.4-11.7,0.4c-4,0.8-6.7,3.3-8.6,6.8
	c-1.3,2.4-1.2,2.4-3.9,2.1c-6.5-0.7-12.9-1.4-19.3-2.1c-2.2-0.2-4.5-0.5-6.7-0.8c-0.7-0.1-0.8-0.4-0.7-1c2.3-9.5,7.8-16.3,17-19.9
	c5-1.9,10.2-2.9,15.5-3.2c6.2-0.4,12.4-0.4,18.6-0.2c5.1,0.2,10.2,0.2,15.2,1.4c7.2,1.8,13.8,4.7,17.7,11.5c3,5.3,4.6,11,4.6,17.2
	c0,12.5,0.1,25,0,37.5c0,5.2,0.7,10.2,3,14.9C305.7,306.7,305.8,307.1,306,307.6L306,307.6z M272.1,272.7c0-0.9,0-2.1,0-3.4
	c0-0.8-0.3-1.3-1.3-1c-0.8,0.2-1.6,0.4-2.4,0.7c-3.8,1.1-7.6,2.2-11.5,3.4c-3.6,1.1-7.2,2-10.4,4.1c-3.4,2.3-4.8,5.5-4,9.5
	c0.8,3.7,3.5,5.8,7,6.6c5,1.2,9.7,0.1,14-2.5c3.1-1.9,5.7-4.3,7.1-7.8C271.9,279.4,272.4,276.3,272.1,272.7L272.1,272.7z"/>
<path class="st2" d="M196.9,287.2c0,0.2,0,0.3,0,0.4c-3.8,6.1-8.1,11.6-14.4,15.3c-4.8,2.9-10.1,4.5-15.7,5.5
	c-7.6,1.3-15.2,1.1-22.8,0.8c-5.1-0.2-10.2-1.1-15-2.8c-6.7-2.3-12-6.4-16.3-11.8c-3.9-4.9-6.8-10.4-8-16.6
	c-0.8-4.1-1.6-8.4-1.4-12.6c0.5-10.7,3.5-20.7,11.2-28.6c4.9-5,10.7-8.5,17.4-10.6c7.6-2.4,15.4-2.9,23.3-2.4
	c4.3,0.3,8.7,0.6,12.9,1.5c11.1,2.4,20,8.4,25.5,18.5c2.8,5.2,4.4,10.8,4.9,16.8c0.3,3.7,0.7,7.3,0.9,10.9c0.2,2.4,0,2.3-2.3,2.3
	c-17.9,0-35.8,0-53.7,0c-2.1,0-4.2,0-6.4,0c-1.9,0-2,0-1.8,2c0.5,5,2.5,9.3,6.3,12.6c6.3,5.4,17,4.5,22.4-1.4
	c2.1-2.3,4.2-2.6,6.9-2.3c5.9,0.6,11.8,1,17.7,1.5C191.4,286.5,194.1,286.9,196.9,287.2L196.9,287.2z M149.9,260.2v0.4
	c3.9-0.1,7.8-0.2,11.7-0.4c1.6-0.1,3.1-0.3,4.7-0.6c0.8-0.1,1.3-0.4,1.2-1.5c-0.4-2.8-0.8-5.5-2.1-8.1c-2.4-4.7-5.9-7.9-11.3-8.5
	c-4-0.4-7.9,0-11.3,2.5c-4.1,3.1-6.5,7.3-7.3,12.5c-0.5,2.9-0.6,2.8,2.6,3.6c0.2,0,0.3,0.1,0.5,0.1
	C142.3,260.2,146.1,260.2,149.9,260.2L149.9,260.2z"/>
<path class="st2" d="M32,233.8c3.1-3.4,6.5-5.8,10.4-7.5c6.1-2.7,12.5-3.2,19.1-2.3c11.3,1.5,19.4,7.7,24.7,17.6
	c2.5,4.8,4,9.9,4.4,15.4c0.2,3.6,0.5,7.2,0.4,10.8c-0.2,8.8-1.9,17.3-6.3,25.1c-2.7,4.8-6.1,9.1-11,12c-6.5,3.8-13.5,5.1-21,4.4
	c-3.6-0.4-7-1.3-10.3-2.9c-4.5-2.1-8-5.5-11.1-9.3c-0.2-0.3-0.4-0.6-0.6-0.8c-0.3-0.2-0.7-0.5-0.9-0.4c-0.2,0.1-0.5,0.6-0.5,0.9
	c-0.1,1.7-0.1,3.5-0.1,5.2c0,1.5,0,3,0.1,4.5c0.1,1-0.4,1.2-1.2,1.2c-8.1,0-16.2,0-24.4,0c-0.7,0-1.4-0.1-2.1,0.1
	c-1.2,0.2-1.4-0.3-1.4-1.4c0-10.5,0-21,0-31.5c0-25.4,0-50.7,0-76.1c0-1.3-0.1-2.6-0.1-3.9c0-1.1,0.4-1.4,1.5-1.4
	c9.6,0,19.2,0,28.9-0.1c1.2,0,1.2,0.7,1.2,1.5c0,11.4,0,22.8,0,34.1c0,0.8-0.1,1.5,0,2.2C31.6,232.1,31.8,232.9,32,233.8L32,233.8z
	 M60.2,266.7c-0.4-4.1-0.3-8.4-2.3-12.4c-1.6-3.2-3.8-6.1-7.3-7.3c-6.1-2-12.7,0-16.6,6.5c-1.8,2.9-2.5,6.2-2.6,9.6
	c-0.1,4.7-0.3,9.4,1.2,14c1.4,4.3,4.2,7.5,8.4,9.3c6.5,2.8,13.1-0.4,16.2-6C59.5,276.2,60,271.6,60.2,266.7L60.2,266.7z"/>
</svg>
